<svg xmlns="http://www.w3.org/2000/svg" version="1.1" xmlns:xlink="http://www.w3.org/1999/xlink" xmlns:svgjs="http://svgjs.dev/svgjs" width="2000" height="414" viewBox="0 0 2000 414"><g transform="matrix(1,0,0,1,-1.2121212121212466,-0.28672042965945366)"><svg viewBox="0 0 396 82" data-background-color="#f0f0f0" preserveAspectRatio="xMidYMid meet" height="414" width="2000" xmlns="http://www.w3.org/2000/svg" xmlns:xlink="http://www.w3.org/1999/xlink"><g id="tight-bounds" transform="matrix(1,0,0,1,0.2400000000000091,0.05679003679244943)"><svg viewBox="0 0 395.52 81.88641992641509" height="81.88641992641509" width="395.52"><g><svg viewBox="0 0 518.7524775144359 107.39983619441571" height="81.88641992641509" width="395.52"><g transform="matrix(1,0,0,1,123.23247751443596,14.843247983453985)"><svg viewBox="0 0 395.52 77.71334022750774" height="77.71334022750774" width="395.52"><g id="textblocktransform"><svg viewBox="0 0 395.52 77.71334022750774" height="77.71334022750774" width="395.52" id="textblock"><g><svg viewBox="0 0 395.52 77.71334022750774" height="77.71334022750774" width="395.52"><g transform="matrix(1,0,0,1,0,0)"><svg width="395.52" viewBox="2.4 -36.4 241.73 47.5" height="77.71334022750774" data-palette-color="#ffffff"><path d="M13.8-31.75L13.8-31.75Q6.3-31.75 6.3-26.1L6.3-26.1Q6.3-22.95 8.03-21.78 9.75-20.6 15.03-19.43 20.3-18.25 22.5-16.38 24.7-14.5 24.7-10.2L24.7-10.2Q24.7 0.45 13.65 0.45L13.65 0.45Q10 0.45 4.5-0.4L4.5-0.4 2.7-0.65 3.1-3.85Q9.9-2.95 13.45-2.95L13.45-2.95Q20.85-2.95 20.85-9.9L20.85-9.9Q20.85-12.7 19.23-13.93 17.6-15.15 13.15-16L13.15-16Q7.3-17.25 4.85-19.23 2.4-21.2 2.4-25.85L2.4-25.85Q2.4-35.15 13.55-35.15L13.55-35.15Q17.2-35.15 22.3-34.4L22.3-34.4 24-34.15 23.65-30.9Q16.7-31.75 13.8-31.75ZM48.35-17.45L48.35-17.45 48.35-4.65Q48.5-2.8 51.25-2.45L51.25-2.45 51.1 0.5Q47.15 0.5 45.15-1.5L45.15-1.5Q40.65 0.5 36.15 0.5L36.15 0.5Q32.7 0.5 30.9-1.45 29.1-3.4 29.1-7.05 29.1-10.7 30.95-12.43 32.8-14.15 36.75-14.55L36.75-14.55 44.6-15.3 44.6-17.45Q44.6-20 43.5-21.1 42.4-22.2 40.5-22.2L40.5-22.2Q36.5-22.2 32.2-21.7L32.2-21.7 30.65-21.55 30.5-24.4Q36-25.5 40.25-25.5 44.5-25.5 46.42-23.55 48.35-21.6 48.35-17.45ZM32.95-7.25L32.95-7.25Q32.95-2.65 36.75-2.65L36.75-2.65Q40.15-2.65 43.45-3.8L43.45-3.8 44.6-4.2 44.6-12.45 37.2-11.75Q34.95-11.55 33.95-10.45 32.95-9.35 32.95-7.25ZM67.8-21.75L60.55-21.75 60.55 0 56.8 0 56.8-21.75 53.65-21.75 53.65-25 56.8-25 56.8-27.25Q56.8-32.55 58.3-34.48 59.8-36.4 63.55-36.4L63.55-36.4 68.59-36.05 68.55-32.95Q65.75-33.05 63.92-33.05 62.1-33.05 61.32-31.85 60.55-30.65 60.55-27.2L60.55-27.2 60.55-25 67.8-25 67.8-21.75ZM88.84-3.1L88.84-3.1 90.29-3.25 90.39-0.3Q84.69 0.5 80.64 0.5L80.64 0.5Q75.24 0.5 72.99-2.63 70.74-5.75 70.74-12.35L70.74-12.35Q70.74-25.5 81.19-25.5L81.19-25.5Q86.24-25.5 88.74-22.68 91.24-19.85 91.24-13.8L91.24-13.8 91.04-10.95 74.54-10.95Q74.54-6.8 76.04-4.8 77.54-2.8 81.27-2.8 84.99-2.8 88.84-3.1ZM74.49-13.95L87.49-13.95Q87.49-18.55 86.02-20.45 84.54-22.35 81.22-22.35 77.89-22.35 76.22-20.35 74.54-18.35 74.49-13.95L74.49-13.95ZM109.89-25L109.89-21.75 101.94-21.75 101.94-9.8Q101.94-5.5 102.56-4.15 103.19-2.8 105.54-2.8L105.54-2.8 109.99-3.1 110.24 0Q106.89 0.55 105.14 0.55L105.14 0.55Q101.24 0.55 99.74-1.35 98.24-3.25 98.24-8.6L98.24-8.6 98.24-21.75 94.69-21.75 94.69-25 98.24-25 98.24-32.65 101.94-32.65 101.94-25 109.89-25ZM119.24 0L112.14-25 115.89-25 122.14-3.25 123.79-3.25 130.09-25 133.84-25 123.44 11.1 119.69 11.1 122.94 0 119.24 0ZM164.53 0L160.74 0 160.74-15.65 143.13-15.65 143.13 0 139.28 0 139.28-34.6 143.13-34.6 143.13-19.1 160.74-19.1 160.74-34.6 164.53-34.6 164.53 0ZM171.03-12.55Q171.03-19.4 173.48-22.45 175.93-25.5 181.76-25.5 187.58-25.5 190.01-22.45 192.43-19.4 192.43-12.55 192.43-5.7 190.13-2.6 187.83 0.5 181.73 0.5 175.63 0.5 173.33-2.6 171.03-5.7 171.03-12.55ZM174.88-12.63Q174.88-7.15 176.21-4.95 177.53-2.75 181.76-2.75 185.98-2.75 187.28-4.93 188.58-7.1 188.58-12.6 188.58-18.1 187.13-20.18 185.68-22.25 181.76-22.25 177.83-22.25 176.36-20.18 174.88-18.1 174.88-12.63ZM197.43-12.55Q197.43-19.4 199.88-22.45 202.33-25.5 208.16-25.5 213.98-25.5 216.41-22.45 218.83-19.4 218.83-12.55 218.83-5.7 216.53-2.6 214.23 0.5 208.13 0.5 202.03 0.5 199.73-2.6 197.43-5.7 197.43-12.55ZM201.28-12.63Q201.28-7.15 202.61-4.95 203.93-2.75 208.16-2.75 212.38-2.75 213.68-4.93 214.98-7.1 214.98-12.6 214.98-18.1 213.53-20.18 212.08-22.25 208.16-22.25 204.23-22.25 202.75-20.18 201.28-18.1 201.28-12.63ZM240.43-35.9L244.13-35.9 244.13 0 240.43 0 240.43-1.7Q236.58 0.5 232.83 0.5L232.83 0.5Q230.83 0.5 229.33 0 227.83-0.5 226.53-1.8L226.53-1.8Q223.83-4.5 223.83-11.78 223.83-19.05 226.25-22.28 228.68-25.5 234.28-25.5L234.28-25.5Q237.18-25.5 240.43-24.85L240.43-24.85 240.43-35.9ZM229.43-4.5Q230.23-3.55 231.13-3.2 232.03-2.85 233.45-2.85 234.88-2.85 236.65-3.33 238.43-3.8 239.43-4.25L239.43-4.25 240.43-4.7 240.43-21.65Q237.23-22.25 234.48-22.25L234.48-22.25Q230.68-22.25 229.18-19.83 227.68-17.4 227.68-12.3L227.68-12.3Q227.68-6.5 229.43-4.5L229.43-4.5Z" opacity="1" transform="matrix(1,0,0,1,0,0)" fill="#ffffff" class="wordmark-text-0" data-fill-palette-color="primary" id="text-0"></path></svg></g></svg></g></svg></g></svg></g><g><svg viewBox="0 0 104.88622300688684 107.39983619441571" height="107.39983619441571" width="104.88622300688684"><g><svg xmlns="http://www.w3.org/2000/svg" xmlns:xlink="http://www.w3.org/1999/xlink" version="1.1" x="0" y="0" viewBox="1.1 0.5 45.9 47" enable-background="new 0 0 48 48" xml:space="preserve" height="107.39983619441571" width="104.88622300688684" class="icon-icon-0" data-fill-palette-color="accent" id="icon-0"><g fill="#52c41a" data-fill-palette-color="accent"><path d="M35.4 0.5C29 0.5 23.9 5.7 23.9 12v2.4h3.9V12c0-4.2 3.4-7.6 7.6-7.6S43 7.8 43 12v8.1c0 1.1 0.9 2 2 2s2-0.9 2-2V12C46.9 5.7 41.8 0.5 35.4 0.5z" fill="#52c41a" data-fill-palette-color="accent"></path><path d="M30.2 18.4H5.4C2.9 19 1.1 21.3 1.1 24v17.7c0 3.2 2.6 5.8 5.8 5.8h21.9c3.2 0 5.8-2.6 5.8-5.8V24C34.5 21.3 32.7 19 30.2 18.4zM19.7 38.7c0 1.1-0.9 2-2 2s-2-0.9-2-2v-3.8c0-1.1 0.9-2 2-2s2 0.9 2 2V38.7z" fill="#52c41a" data-fill-palette-color="accent"></path></g></svg></g></svg></g></svg></g><defs></defs></svg><rect width="395.52" height="81.88641992641509" fill="none" stroke="none" visibility="hidden"></rect></g></svg></g></svg>