<svg xmlns="http://www.w3.org/2000/svg" width="300" height="50" viewBox="0 0 347 72"><defs><clipPath id="a"><path d="M82.363 9.938H346.52v52.027H82.363Zm0 0"/></clipPath><clipPath id="b"><path d="M34 0h36.11v34H34Zm0 0"/></clipPath><clipPath id="c"><path d="M.059 27H52v44.898H.059Zm0 0"/></clipPath></defs><g clip-path="url(#a)"><path style="stroke:none;fill-rule:nonzero;fill:#fff;fill-opacity:1" d="M94.832 15.031c-5.465 0-8.195 2.063-8.195 6.188 0 2.3.629 3.879 1.89 4.73 1.25.863 3.801 1.719 7.649 2.574 3.836.864 6.558 1.977 8.16 3.34 1.602 1.375 2.406 3.63 2.406 6.77 0 7.777-4.027 11.664-12.074 11.664-2.66 0-5.992-.309-10-.93l-1.965-.273.438-3.504c4.953.656 8.722.984 11.308.984 5.39 0 8.086-2.539 8.086-7.613 0-2.043-.59-3.516-1.77-4.414-1.187-.89-3.402-1.645-6.644-2.266-4.262-.914-7.285-2.093-9.07-3.539-1.785-1.437-2.676-3.855-2.676-7.25 0-6.789 4.059-10.187 12.184-10.187 2.656 0 5.843.273 9.558.824l1.86.273-.383 3.559c-5.063-.621-8.653-.93-10.762-.93Zm37.75 15.66v14.02c.11 1.352 1.168 2.156 3.168 2.41l-.164 3.23c-2.875 0-5.043-.73-6.5-2.187-3.277 1.457-6.555 2.188-9.832 2.188-2.516 0-4.426-.711-5.738-2.133-1.313-1.426-1.97-3.469-1.97-6.137 0-2.664.677-4.629 2.024-5.89 1.348-1.258 3.461-2.032 6.336-2.325l8.578-.82V30.69c0-1.859-.398-3.191-1.199-3.996-.805-.804-1.894-1.207-3.281-1.207-2.914 0-5.938.184-9.067.551l-1.695.164-.164-3.121c4.008-.805 7.559-1.207 10.652-1.207 3.098 0 5.344.71 6.743 2.137 1.406 1.422 2.109 3.652 2.109 6.68Zm-16.828 11.172c0 3.36 1.387 5.04 4.152 5.04 2.477 0 4.918-.419 7.324-1.258l1.254-.438v-9.039l-8.086.77c-1.636.144-2.82.617-3.55 1.421-.727.805-1.094 1.973-1.094 3.504Zm38.082-15.879h-7.922v23.82h-4.098v-23.82h-3.441v-3.562h3.441v-2.465c0-3.867.547-6.508 1.637-7.918 1.094-1.402 3.008-2.101 5.738-2.101l5.508.382-.043 3.395c-2.039-.07-3.726-.11-5.058-.11-1.328 0-2.274.438-2.844 1.317-.559.875-.84 2.574-.84 5.094v2.406h7.922Zm22.988 20.426 1.586-.164.11 3.23c-4.153.587-7.704.876-10.653.876-3.933 0-6.722-1.141-8.36-3.426-1.64-2.278-2.46-5.828-2.46-10.649 0-9.601 3.808-14.402 11.418-14.402 3.68 0 6.43 1.031 8.25 3.09 1.824 2.066 2.734 5.308 2.734 9.726l-.219 3.121H161.2c0 3.032.546 5.274 1.64 6.735 1.094 1.46 2.996 2.191 5.715 2.191 2.71 0 5.465-.11 8.27-.328Zm-15.68-11.883h14.208c0-3.359-.536-5.734-1.606-7.12-1.078-1.387-2.828-2.083-5.246-2.083-2.426 0-4.246.73-5.465 2.192-1.222 1.46-1.851 3.797-1.89 7.011Zm38.684-12.105v3.562h-8.687V39.07c0 3.14.226 5.203.675 6.192.461.984 1.547 1.476 3.258 1.476l4.863-.328.274 3.395c-2.441.402-4.3.601-5.574.601-2.84 0-4.809-.691-5.903-2.078-1.09-1.387-1.636-4.035-1.636-7.941V25.984h-3.88v-3.562h3.88v-8.379h4.043v8.379Zm10.215 27.383-7.758-27.383h4.098l6.828 23.824h1.805l6.882-23.824h4.098l-11.363 39.543h-4.098l3.55-12.16Zm49.488 0h-4.14v-17.14h-19.243v17.14h-4.207V11.91h4.207v16.977h19.243V11.91h4.14Zm7.102-13.746c0-5 .894-8.614 2.68-10.844 1.78-2.227 4.8-3.34 9.046-3.34 4.239 0 7.243 1.113 9.012 3.34 1.766 2.23 2.645 5.844 2.645 10.844 0 5.004-.836 8.636-2.512 10.898-1.676 2.266-4.734 3.395-9.18 3.395-4.441 0-7.5-1.13-9.176-3.395-1.675-2.262-2.515-5.895-2.515-10.898Zm4.207-.086c0 4 .484 6.804 1.453 8.41.96 1.61 2.984 2.41 6.066 2.41 3.075 0 5.082-.797 6.032-2.387.945-1.586 1.418-4.386 1.418-8.402 0-4.016-.528-6.781-1.582-8.3-1.059-1.513-3.012-2.27-5.868-2.27-2.863 0-4.832.757-5.902 2.27-1.078 1.519-1.617 4.273-1.617 8.269Zm24.64.086c0-5 .895-8.614 2.676-10.844 1.785-2.227 4.801-3.34 9.051-3.34 4.238 0 7.242 1.113 9.012 3.34 1.765 2.23 2.644 5.844 2.644 10.844 0 5.004-.836 8.636-2.511 10.898-1.676 2.266-4.735 3.395-9.18 3.395-4.442 0-7.504-1.13-9.18-3.395-1.672-2.262-2.512-5.895-2.512-10.898Zm4.207-.086c0 4 .485 6.804 1.454 8.41.96 1.61 2.984 2.41 6.066 2.41 3.074 0 5.082-.797 6.031-2.387.946-1.586 1.418-4.386 1.418-8.402 0-4.016-.527-6.781-1.582-8.3-1.058-1.513-3.012-2.27-5.867-2.27-2.863 0-4.836.757-5.914 2.27-1.07 1.519-1.606 4.273-1.606 8.269Zm42.778-25.489h4.043v39.32h-4.043v-1.859c-2.805 1.606-5.57 2.407-8.305 2.407-1.457 0-2.73-.18-3.824-.547-1.09-.364-2.11-1.02-3.059-1.97-1.964-1.972-2.949-5.616-2.949-10.933 0-5.308.883-9.14 2.645-11.5 1.77-2.351 4.695-3.527 8.773-3.527 2.113 0 4.352.238 6.719.71Zm-12.02 34.391c.586.695 1.203 1.172 1.86 1.426.656.254 1.5.383 2.535.383 1.043 0 2.207-.176 3.496-.524 1.297-.344 2.309-.68 3.039-1.008l1.09-.496V26.094c-2.328-.438-4.496-.66-6.5-.66-2.77 0-4.7.886-5.793 2.652-1.09 1.773-1.637 4.523-1.637 8.246 0 4.238.637 7.086 1.91 8.543Zm0 0"/></g><g clip-path="url(#b)"><path style="stroke:none;fill-rule:nonzero;fill:#52c41a;fill-opacity:1" d="M52.406 0c-9.765 0-17.55 7.953-17.55 17.594v3.672h5.953v-3.672c0-6.426 5.187-11.63 11.597-11.63 6.41 0 11.598 5.204 11.598 11.63v12.39a3.065 3.065 0 0 0 3.055 3.059c1.68 0 3.05-1.375 3.05-3.059v-12.39C69.957 7.954 62.176 0 52.406 0Zm0 0"/></g><g clip-path="url(#c)"><path style="stroke:none;fill-rule:nonzero;fill:#52c41a;fill-opacity:1" d="M44.469 27.383H6.62C2.805 28.3.06 31.82.06 35.949v27.078c0 4.895 3.968 8.871 8.851 8.871h33.422c4.887 0 8.852-3.976 8.852-8.87V35.948c-.153-4.129-2.899-7.648-6.715-8.566ZM28.445 58.438a3.064 3.064 0 0 1-3.05 3.058 3.065 3.065 0 0 1-3.055-3.059v-5.812a3.065 3.065 0 0 1 3.055-3.059 3.064 3.064 0 0 1 3.05 3.059Zm0 0"/></g></svg>